<?xml version="1.0" ?><!DOCTYPE svg  PUBLIC '-//W3C//DTD SVG 1.1//EN'  'http://www.w3.org/Graphics/SVG/1.1/DTD/svg11.dtd'><svg height="512px" style="enable-background:new 0 0 512 512;" version="1.1" viewBox="0 0 512 512" width="512px" xml:space="preserve" xmlns="http://www.w3.org/2000/svg" xmlns:xlink="http://www.w3.org/1999/xlink"><g id="_x31_12_x2C__Mountains_x2C__Nature_x2C__Outdoor_x2C__Sun_x2C__Hiking"><g><path d="M271.448,208.615l10.946,22.703l19.057-21.756    c0.583-0.668,1.418-1.113,2.365-1.17l25.823-1.42l1.394-20.92c0.027-0.308,0.084-0.613,0.168-0.948    c0.583-1.782,2.506-2.786,4.316-2.2l27.385,8.997l-39.92-80.032L271.448,208.615z M367.191,200.51l-29.613-9.723l-1.309,19.639    c-0.109,1.783-1.586,3.176-3.342,3.204l-27.3,1.505l-21.507,24.568c-1.225,1.421-3.396,1.561-4.79,0.307    c-0.361-0.307-0.639-0.668-0.835-1.086l-11.03-22.843l-4.738,8.858v0.027l-0.221,0.391L148.908,438.656h337.091l-17.632-35.351    H305.989c-1.863,0-3.397-1.531-3.397-3.426c0-1.867,1.534-3.427,3.397-3.427h158.98l-4.598-9.164H298.135    c-1.896,0-3.425-1.533-3.425-3.428s1.529-3.426,3.425-3.426h158.813L367.191,200.51z M255.151,222.266L200.08,111.869    l-41.31,77.581l17.909,1.866c1.867,0.195,3.232,1.867,3.039,3.762l-0.168,0.752l-8.83,25.6l31.255-4.958    c1.084-0.196,2.172,0.194,2.923,0.919l23.623,21.171L255.151,222.266z M66.841,374.029v7.854h5.935v-7.854H66.841z     M111.44,274.748l-12.258,13.287h20.53h0.084h9.862h0.084h20.502l-12.396-13.455c-1.285-1.365-1.2-3.537,0.193-4.819    c0.643-0.558,1.421-0.863,2.201-0.892l-8.356-9.053c-1.281-1.393-1.197-3.565,0.193-4.848c0.252-0.25,0.558-0.445,0.867-0.585    l-4.264-4.93c-1.084-1.31-1.084-3.177-0.028-4.431l-2.896-3.509l-0.056-0.056l-0.056-0.084l-1.06-1.254l-4.04,5.07    c0.417,0.557,0.67,1.254,0.67,2.006c0,0.947-0.39,1.811-1.004,2.424l-3.871,4.707c1.253,0.502,2.145,1.727,2.145,3.176    c0,0.947-0.417,1.839-1.06,2.451l-8.216,8.914c1.839,0.057,3.285,1.561,3.285,3.398    C112.497,273.243,112.107,274.135,111.44,274.748z M116.371,302.799v-7.911H102.61L88.958,320.46l3.316,3.816    c0.558,0.613,0.919,1.448,0.919,2.34c0,1.783-1.365,3.231-3.064,3.427l12.255,13.26c0.642,0.641,1.06,1.504,1.06,2.479    c0,1.895-1.533,3.427-3.429,3.427h-2.144l17.495,18.942c0.643,0.613,1.06,1.505,1.06,2.479c0,1.866-1.534,3.399-3.429,3.399h-33.4    v11.281c0,1.895-1.53,3.427-3.425,3.427H63.441c-1.892,0-3.425-1.532-3.425-3.427v-10.475l-34.014,63.82h115.161l109.56-205.666    l-20.808,12.73c-1.253,0.752-2.896,0.641-4.04-0.39l-24.43-21.896l-35.042,5.6c-0.614,0.139-1.256,0.111-1.867-0.111    c-1.783-0.586-2.759-2.535-2.145-4.318l9.304-26.938l-16.382-1.727l-22.896,42.954l4.875,5.905    c0.611,0.613,1.004,1.477,1.004,2.396c0,0.809-0.253,1.531-0.698,2.089l5.043,5.878c0.558,0.613,0.919,1.421,0.919,2.34    c0,1.281-0.727,2.396-1.755,2.981l8.605,9.331c0.67,0.613,1.06,1.504,1.06,2.451c0,1.867-1.45,3.371-3.289,3.427l12.259,13.288    c0.639,0.612,1.06,1.504,1.06,2.479c0,1.866-1.534,3.426-3.429,3.426h-25.016v7.911c0,1.895-1.53,3.427-3.397,3.427h-9.862    C117.901,306.226,116.371,304.693,116.371,302.799z M123.222,294.888v4.485h3.011v-4.485H123.222z M277.299,380.436    c1.892,0,3.426,1.531,3.426,3.426s-1.534,3.428-3.426,3.428h-32.592c-1.895,0-3.425-1.533-3.425-3.428s1.53-3.426,3.425-3.426    H277.299z M295.264,396.453c1.867,0,3.401,1.56,3.401,3.427c0,1.895-1.534,3.426-3.401,3.426H281.7    c-1.867,0-3.401-1.531-3.401-3.426c0-1.867,1.534-3.427,3.401-3.427H295.264z M246.879,93.4c3.288-3.287,7.798-5.293,12.729-5.293    c4.959,0,9.444,2.006,12.704,5.266c3.289,3.287,5.293,7.771,5.293,12.73c0,4.848-1.924,9.275-5.071,12.508l-0.193,0.223    c-3.26,3.26-7.773,5.266-12.732,5.266c-4.955,0-9.468-2.006-12.729-5.266c-3.232-3.26-5.264-7.771-5.264-12.73    S243.619,96.66,246.879,93.4z M259.607,94.961c-3.091,0-5.875,1.254-7.882,3.259c-2.004,2.006-3.26,4.792-3.26,7.884    s1.256,5.877,3.26,7.883c2.035,2.006,4.818,3.26,7.882,3.26c3.092,0,5.879-1.254,7.886-3.26l0.165-0.166    c1.924-1.979,3.092-4.709,3.092-7.717c0-3.092-1.225-5.878-3.229-7.884C265.486,96.215,262.699,94.961,259.607,94.961z     M236.431,87.773c-1.309-1.337-1.309-3.51,0-4.848c1.337-1.336,3.513-1.336,4.85,0l4.457,4.457c1.337,1.338,1.337,3.511,0,4.848    c-1.337,1.31-3.513,1.31-4.85,0L236.431,87.773z M230.275,109.529c-1.895,0-3.425-1.531-3.425-3.426s1.53-3.427,3.425-3.427h6.268    c1.895,0,3.425,1.532,3.425,3.427s-1.53,3.426-3.425,3.426H230.275z M241.281,129.279c-1.337,1.338-3.513,1.338-4.85,0    c-1.309-1.336-1.309-3.509,0-4.846l4.457-4.43c1.337-1.338,3.513-1.338,4.85,0c1.337,1.336,1.337,3.51,0,4.847L241.281,129.279z     M263.036,135.465c0,1.865-1.533,3.397-3.429,3.397c-1.863,0-3.425-1.532-3.425-3.397v-6.297c0-1.895,1.562-3.426,3.425-3.426    c1.896,0,3.429,1.531,3.429,3.426V135.465z M282.784,124.434c1.337,1.337,1.337,3.51,0,4.846c-1.337,1.338-3.51,1.338-4.847,0    l-4.429-4.429c-1.337-1.337-1.337-3.511,0-4.847c1.337-1.338,3.51-1.338,4.847,0L282.784,124.434z M288.972,102.677    c1.863,0,3.397,1.532,3.397,3.427s-1.534,3.426-3.397,3.426h-6.296c-1.896,0-3.429-1.531-3.429-3.426s1.533-3.427,3.429-3.427    H288.972z M277.938,82.926c1.337-1.336,3.51-1.336,4.847,0c1.337,1.338,1.337,3.511,0,4.848l-4.429,4.43    c-1.337,1.337-3.51,1.337-4.847,0c-1.337-1.31-1.337-3.511,0-4.82L277.938,82.926z M256.183,76.77    c0-1.895,1.533-3.426,3.425-3.426c1.896,0,3.429,1.531,3.429,3.426v6.268c0,1.895-1.533,3.427-3.429,3.427    c-1.892,0-3.425-1.532-3.425-3.427V76.77z M51.909,348.262l-17.463,18.941h28.887h0.109h12.732h0.112h28.887l-17.635-19.109    c-1.253-1.393-1.169-3.537,0.225-4.818c0.639-0.613,1.478-0.892,2.313-0.892l2.145-0.028l-12.396-13.428    c-1.281-1.363-1.2-3.537,0.193-4.818c0.642-0.585,1.478-0.891,2.285-0.891l-6.602-7.689c-1.225-1.421-1.06-3.594,0.362-4.818    l0.196-0.141l-6.629-8.051l-6.549,8.219c0.699,0.641,1.144,1.561,1.144,2.563c0,0.947-0.361,1.811-0.976,2.424l-6.155,7.466h0.193    c1.895,0,3.429,1.56,3.429,3.426c0,0.976-0.417,1.866-1.06,2.479l-12.258,13.26h2.147c1.892,0,3.425,1.532,3.425,3.426    C52.968,346.756,52.579,347.648,51.909,348.262z" style="fill-rule:evenodd;clip-rule:evenodd;"/></g></g><g id="Layer_1"/></svg>