<?xml version="1.0" ?><!DOCTYPE svg  PUBLIC '-//W3C//DTD SVG 1.1//EN'  'http://www.w3.org/Graphics/SVG/1.1/DTD/svg11.dtd'><svg height="256px" style="shape-rendering:geometricPrecision; text-rendering:geometricPrecision; image-rendering:optimizeQuality; fill-rule:evenodd; clip-rule:evenodd" version="1.1" viewBox="0 0 256000 256000" width="256px" xml:space="preserve" xmlns="http://www.w3.org/2000/svg" xmlns:xlink="http://www.w3.org/1999/xlink"><defs><style type="text/css">
   <![CDATA[
    .fil2 {fill:none}
    .fil0 {fill:#7B519D}
    .fil1 {fill:#FFFFFE}
   ]]>
  </style></defs><g id="Layer_x0020_1"><polygon class="fil0" points="256000,256000 256000,0 0,0 0,256000 "/><path class="fil1" d="M110981 86377c-290,-5298 -6452,-16216 -13685,-26084 -7129,-9725 -15484,-18687 -20491,-20529 -2176,-800 -4365,-1174 -6579,-1162 -2184,12 -4355,402 -6527,1132 -1158,388 -2226,784 -3204,1182 -9661,3935 -16585,10117 -20293,17832 -3715,7732 -4150,16902 -824,26790 351,1045 719,2040 1102,2980 6095,14962 13249,28903 21525,41752 8296,12881 17704,24646 28285,35227 10580,10581 22345,19987 35225,28284 12848,8276 26789,15428 41752,21523 944,385 1941,753 2989,1105 9885,3324 19052,2889 26782,-825 7713,-3707 13892,-10627 17826,-20283 401,-981 797,-2052 1186,-3214 730,-2171 1121,-4343 1133,-6528 13,-2215 -361,-4405 -1160,-6580 -1842,-5006 -10808,-13364 -20537,-20495 -9867,-7232 -20782,-13391 -26079,-13679 -4378,-239 -7761,1136 -10553,3312 -2591,2018 -4552,4667 -6334,7293 -2635,3879 -5534,5812 -8640,6352 -3250,564 -6897,-306 -10810,-2047 -4280,-1905 -8299,-4083 -12027,-6561 -3694,-2457 -7086,-5202 -10143,-8259l-11 -12c-3056,-3055 -5800,-6446 -8257,-10141 -2478,-3727 -4657,-7747 -6563,-12029 -1741,-3913 -2612,-7558 -2047,-10808 540,-3105 2476,-6005 6354,-8639 2626,-1782 5274,-3744 7292,-6335 2176,-2792 3551,-6176 3313,-10554z"/><path class="fil1" d="M177299 112225c-732,-8439 -4800,-16242 -10866,-22116 -6048,-5855 -14094,-9807 -22800,-10560l-11 0c-614,-52 -1325,-89 -2131,-108 -688,-16 -1360,-13 -2011,11l0 -7 -112 12c-2455,101 -4635,1184 -6171,2854 -1513,1644 -2410,3858 -2340,6263l-7 0 11 112c101,2453 1185,4630 2854,6166 1668,1537 3926,2438 6372,2341l12 0c339,-15 666,-19 981,-12 233,6 576,29 1022,68 4378,380 8586,2489 11800,5544 3177,3021 5348,6934 5696,10964 37,419 57,742 59,966 4,269 -8,587 -34,951 -164,2440 680,4722 2178,6437 1488,1704 3621,2844 6051,3017l0 2 342 11 295 3 0 12c2311,0 4450,-908 6054,-2407 1588,-1487 2639,-3549 2798,-5877 49,-708 69,-1478 61,-2302 -8,-872 -44,-1656 -103,-2345z"/><path class="fil1" d="M182291 74524c-4846,-4847 -10444,-8769 -16498,-11629 -6060,-2862 -12562,-4650 -19215,-5226 -1817,-157 -3697,-218 -5628,-180l-11 0c-1870,37 -3731,173 -5572,408l-3 -10 -5 1 -10 11c-2433,312 -4508,1578 -5896,3372 -1383,1789 -2086,4107 -1781,6532l-10 1 1 4 11 11c309,2434 1577,4510 3372,5897 1794,1389 4122,2093 6549,1785 1222,-156 2458,-246 3697,-269 1185,-23 2439,22 3755,138 4580,396 9057,1631 13227,3608 4175,1980 8061,4714 11454,8108 3246,3246 5854,6917 7731,10821 1870,3893 3034,8050 3403,12285 104,1197 145,2336 124,3408 -23,1121 -104,2241 -246,3347 -307,2433 397,4759 1785,6551 1391,1796 3468,3061 5903,3371l22 10c137,17 319,32 552,47 244,16 430,23 548,23 2208,0 4279,-833 5868,-2235 1559,-1376 2644,-3306 2927,-5533 221,-1734 349,-3488 382,-5253 35,-1814 -21,-3575 -169,-5269 -547,-6316 -2269,-12508 -5030,-18296 -2757,-5776 -6546,-11149 -11237,-15839z"/><path class="fil1" d="M213778 78670c-3747,-7905 -8890,-15229 -15249,-21587 -6513,-6513 -14058,-11786 -22241,-15637 -8181,-3849 -16970,-6257 -25967,-7037 -2912,-253 -5876,-327 -8872,-223 -2960,102 -5901,384 -8799,843 -2424,385 -4462,1714 -5796,3551 -1331,1833 -1963,4180 -1579,6604 385,2426 1714,4464 3551,5797 1833,1331 4180,1962 6606,1578 2188,-347 4402,-558 6624,-635 2188,-76 4437,-13 6731,185 6941,601 13706,2455 19991,5418 6307,2973 12138,7058 17188,12110l0 10c4908,4909 8865,10521 11730,16545 2864,6020 4652,12471 5224,19056 197,2287 250,4538 158,6734 -93,2196 -332,4411 -717,6626 -418,2408 183,4762 1491,6620 1308,1859 3329,3220 5749,3641l11 0c288,49 540,83 748,101 257,22 510,34 758,34 2125,0 4136,-776 5709,-2102 1549,-1304 2664,-3135 3034,-5272 506,-2911 824,-5889 950,-8912 128,-3032 64,-6041 -192,-9003 -751,-8660 -3092,-17136 -6841,-25045z"/></g><rect class="fil2" height="256000" width="256000"/></svg>